# xmcd
#
# Track frame offsets:
#	150
#	9277
#	21123
#	34142
#	45914
#	59426
#	69301
#	82057
#	93587
#	103449
#	114195
#	129126
#	139616
#	151667
#	165468
#	175927
#	188965
#	198353
#	207706
#	219417
#	230817
#	240478
#	252127
#	264662
#	273415
#	285443
#	296797
#	309282
#	321973
#
# Disc length: 4443
#
# Revision: 1
# Processed by: cddbd v1.5.1PL0 Copyright (c) Steve Scherf et al.
# Submitted via: EasyCDDAExtractor 4.5.0.2
# Normalized: r0:TDELIM( - )
#
DISCID=9a11591d
DTITLE=Various Artist - Werner CD Contry
DYEAR=2000
DGENRE=Country
TTITLE0=Sweethearts of the rodeo - Blue canadian Rockies
TTITLE1=Jim Reeves - Blue Canadian Rockies
TTITLE2=Lynn Anderson - Rosegarden
TTITLE3=Donna Fargo - U. S. of America
TTITLE4=Willie Nelson - a Moment Isn't Take Your Love
TTITLE5=Dolly Parton - Release Me
TTITLE6=Kenny Rogers - Ruby Don't Take Your Love to Town
TTITLE7=Billie Jo Spears - Try a Little Kindness
TTITLE8=Don Williams - Take My Hand for a While
TTITLE9=Johnny Cash - I Love You Because
TTITLE10=Kenny Rogers - for the Good Times
TTITLE11=Waylon Jennings - Burning Memories
TTITLE12=Oak Ridge Boys - Without God
TTITLE13=Billie Jo Spears - Mr. Walker, it's All Over
TTITLE14=Johnny Cash - Cold Cold Heart
TTITLE15=Don Williams - Where Do We Go From Here
TTITLE16=Lynn Anderson - Snowbird
TTITLE17=Willie Nelson - Building Heartaches
TTITLE18=Donna Fargo - Funny Face
TTITLE19=Willie Nelson - Is There Something On Your Mind
TTITLE20=Johnny Cash - Ballad Of A Teenage Queen
TTITLE21=Dolly Parton - Letter To Heaven
TTITLE22=Kenny Rogers - Reuben James
TTITLE23=Waylon Jennings - Mean Old Greyhound Bus
TTITLE24=Lynn Anderson - Stand By Your Man
TTITLE25=Donna Fargo - The Happiest Girl In The Whole Usa
TTITLE26=Johnny Cash - Folsom Prison Blues
TTITLE27=Oak Ridge Boys - The Old Country Church
TTITLE28=Lynn Anderson - That'll Be The Day
EXTD=
EXTT0=
EXTT1=
EXTT2=
EXTT3=
EXTT4=
EXTT5=
EXTT6=
EXTT7=
EXTT8=
EXTT9=
EXTT10=
EXTT11=
EXTT12=
EXTT13=
EXTT14=
EXTT15=
EXTT16=
EXTT17=
EXTT18=
EXTT19=
EXTT20=
EXTT21=
EXTT22=
EXTT23=
EXTT24=
EXTT25=
EXTT26=
EXTT27=
EXTT28=
PLAYORDER=
